<?xml version="1.0" standalone="no"?>
<!DOCTYPE svg PUBLIC "-//W3C//DTD SVG 20010904//EN"
 "http://www.w3.org/TR/2001/REC-SVG-20010904/DTD/svg10.dtd">
<svg version="1.0" xmlns="http://www.w3.org/2000/svg"
 width="205.000000pt" height="205.000000pt" viewBox="0 0 205.000000 205.000000"
 preserveAspectRatio="xMidYMid meet">
<metadata>
Created by potrace 1.11, written by Peter Selinger 2001-2013
</metadata>
<g transform="translate(0.000000,205.000000) scale(0.100000,-0.100000)"
fill="#000000" stroke="none">
<path d="M855 2024 c-116 -21 -169 -38 -270 -87 -284 -139 -487 -396 -550
-697 -96 -456 122 -912 535 -1120 134 -67 310 -110 455 -110 258 0 531 114
716 299 175 174 280 409 296 656 24 409 -203 796 -572 971 -111 52 -165 70
-279 89 -108 18 -224 18 -331 -1z m439 -48 c215 -64 424 -214 544 -389 43 -62
106 -191 130 -267 20 -60 42 -166 42 -197 0 -10 -31 -13 -140 -13 l-140 0 0
24 c0 39 -39 156 -78 231 -49 96 -190 236 -287 287 -289 150 -620 101 -844
-123 -100 -100 -170 -230 -195 -361 l-11 -58 -138 0 -139 0 6 48 c45 319 255
609 542 750 168 83 263 103 464 98 132 -3 168 -8 244 -30z m-139 -311 c191
-41 364 -174 453 -351 52 -103 66 -167 66 -294 0 -98 -4 -126 -26 -191 -36
-102 -88 -188 -156 -258 -305 -311 -810 -248 -1032 128 -62 107 -85 195 -84
331 0 101 4 125 30 200 111 317 430 502 749 435z m-827 -792 c34 -180 155
-350 322 -455 319 -199 744 -111 962 200 46 66 96 182 110 256 l13 66 138 0
139 0 -7 -52 c-18 -131 -89 -313 -167 -426 -47 -68 -154 -177 -227 -232 -83
-62 -203 -121 -317 -157 -83 -25 -101 -27 -269 -27 -168 0 -186 2 -269 27 -96
30 -221 89 -293 139 -70 48 -190 166 -238 233 -88 123 -161 304 -180 443 l-7
52 139 0 138 0 13 -67z"/>
<path d="M962 1930 c-33 -31 -30 -92 4 -119 35 -27 49 -27 30 1 -18 25 -21 74
-6 112 12 31 1 33 -28 6z"/>
<path d="M1040 1941 c0 -6 5 -13 10 -16 13 -8 13 -91 -1 -116 -9 -18 -8 -19 9
-10 48 25 61 93 26 132 -18 20 -44 26 -44 10z"/>
<path d="M839 1933 l-25 -4 15 -80 c11 -60 18 -78 29 -74 7 3 21 5 29 5 11 0
13 4 5 13 -9 11 -32 103 -32 127 0 17 28 11 39 -7 9 -16 10 -16 11 5 0 23 -9
25 -71 15z"/>
<path d="M1184 1858 c-15 -58 -17 -78 -8 -78 7 0 20 -3 30 -7 10 -3 15 -2 11
3 -4 8 10 76 28 135 4 12 -1 18 -18 21 -21 4 -25 -1 -43 -74z"/>
<path d="M770 1893 c0 -29 2 -29 19 5 10 18 9 22 -4 22 -10 0 -15 -9 -15 -27z"/>
<path d="M1272 1889 c0 -17 -6 -37 -13 -45 -19 -23 24 -18 46 6 17 18 17 21 1
45 -22 33 -33 32 -34 -6z"/>
<path d="M720 1900 c-9 -6 -10 -10 -3 -10 6 0 15 5 18 10 8 12 4 12 -15 0z"/>
<path d="M1333 1820 c-30 -67 -30 -71 -13 -80 24 -13 30 -13 30 3 0 6 13 39
29 72 28 60 27 70 -10 74 -3 1 -19 -31 -36 -69z"/>
<path d="M639 1869 l-25 -9 30 -65 c31 -68 41 -77 75 -68 20 5 20 5 1 22 -21
18 -62 115 -53 125 8 7 5 7 -28 -5z"/>
<path d="M1426 1855 c7 -17 -13 -55 -29 -55 -8 0 -12 -16 -12 -45 0 -43 2 -46
45 -69 l45 -24 42 66 c37 60 40 67 25 79 -21 15 -32 16 -32 3 0 -5 -16 -35
-35 -65 -36 -55 -61 -65 -49 -20 3 13 1 33 -6 44 -9 18 -8 21 8 21 29 0 46 25
33 48 -12 23 -43 38 -35 17z"/>
<path d="M565 1831 c-3 -6 4 -15 15 -21 22 -12 23 -10 14 14 -7 18 -20 21 -29
7z"/>
<path d="M523 1803 c-7 -2 -13 -10 -13 -16 0 -9 54 -98 76 -125 1 -2 11 1 23
7 19 11 19 14 -25 76 -25 36 -46 65 -47 64 -1 0 -8 -3 -14 -6z"/>
<path d="M473 1772 c-10 -6 -10 -12 2 -28 14 -18 14 -18 15 9 0 30 0 30 -17
19z"/>
<path d="M1581 1776 c4 -4 -4 -41 -17 -84 -13 -42 -20 -80 -16 -84 18 -18 38
4 55 60 10 31 20 62 22 67 2 6 -8 19 -23 29 -15 11 -24 16 -21 12z"/>
<path d="M413 1723 l-21 -14 22 -22 c11 -12 36 -40 53 -62 30 -36 34 -38 49
-23 15 15 13 21 -33 75 -46 56 -51 59 -70 46z"/>
<path d="M1672 1679 c-12 -18 -11 -19 6 -10 11 6 23 7 28 3 5 -4 2 1 -5 11
-16 21 -14 21 -29 -4z"/>
<path d="M337 1652 c-15 -16 -27 -32 -27 -37 0 -5 25 -32 56 -60 53 -49 56
-51 69 -32 12 17 9 23 -38 65 -59 52 -65 68 -22 64 16 -2 28 -2 25 0 -3 2 -12
9 -21 16 -13 9 -20 7 -42 -16z"/>
<path d="M1738 1613 c-10 -3 -18 -8 -18 -13 0 -5 -13 -31 -29 -58 l-28 -49 29
-45 30 -46 57 34 c31 19 62 34 68 34 10 0 10 6 2 24 l-11 24 -65 -35 c-35 -19
-66 -33 -69 -30 -3 3 11 38 32 77 36 70 37 91 2 83z"/>
<path d="M281 1587 c-8 -11 -7 -18 7 -30 18 -16 18 -15 14 13 -5 34 -6 35 -21
17z"/>
<path d="M1606 1555 c4 -8 7 -15 9 -15 2 0 5 7 9 15 3 9 0 15 -9 15 -9 0 -12
-6 -9 -15z"/>
<path d="M245 1530 c-4 -6 3 -10 14 -10 25 0 27 6 6 13 -8 4 -17 2 -20 -3z"/>
<path d="M212 1470 c4 -41 23 -48 80 -29 29 9 41 10 50 1 19 -19 28 -14 28 13
0 37 -27 45 -84 27 -46 -15 -49 -15 -63 4 -13 18 -14 17 -11 -16z"/>
<path d="M1871 1438 c-2 -23 -53 -58 -96 -65 -32 -5 -34 -7 -18 -19 22 -17 54
-18 88 -2 27 12 39 42 32 79 -2 14 -5 16 -6 7z"/>
<path d="M167 1406 c-4 -10 -1 -13 8 -9 8 3 12 9 9 14 -7 12 -11 11 -17 -5z"/>
<path d="M282 1396 c2 -1 10 -7 19 -14 13 -10 19 -10 27 0 8 10 3 13 -19 14
-16 1 -28 1 -27 0z"/>
<path d="M196 1346 c-70 -27 -89 -51 -48 -59 15 -3 32 -2 37 3 6 4 34 15 62
24 61 20 71 31 44 45 -25 14 -25 14 -95 -13z"/>
<path d="M1850 1333 c-29 -11 -60 -47 -60 -70 0 -23 0 -23 19 -4 22 22 96 45
117 37 8 -3 14 -1 14 5 0 8 -62 41 -72 38 -2 0 -10 -3 -18 -6z"/>
<path d="M261 1251 c-8 -5 -9 -11 -3 -15 5 -3 12 1 16 9 6 17 6 18 -13 6z"/>
<path d="M1945 1250 c-13 -20 -70 -42 -109 -42 l-41 1 24 -20 c48 -39 123 -15
137 44 6 27 1 36 -11 17z"/>
<path d="M106 1227 c-3 -12 -4 -22 -2 -24 7 -7 147 -39 151 -35 3 3 5 13 5 23
0 13 -11 20 -37 25 -21 4 -54 13 -75 20 -34 12 -36 11 -42 -9z"/>
<path d="M730 1374 c-41 -14 -93 -28 -115 -32 l-40 -8 -3 -312 -2 -312 26 0
c15 0 69 14 121 30 121 39 195 40 248 5 20 -15 40 -24 42 -21 13 13 -11 39
-54 58 -59 26 -135 21 -247 -16 -43 -14 -85 -26 -92 -26 -12 0 -14 50 -14 283
l0 283 104 33 c168 53 251 43 301 -37 11 -17 23 -31 27 -32 3 0 15 15 26 34
46 78 129 87 301 35 l111 -34 0 -282 c0 -256 -2 -283 -16 -283 -10 0 -59 14
-111 30 -137 44 -227 38 -277 -19 -29 -32 -12 -36 31 -7 54 37 131 36 248 -4
49 -17 101 -30 117 -30 l28 0 0 310 0 309 -42 11 c-24 6 -70 20 -103 32 -33
11 -92 23 -131 25 -79 6 -122 -9 -161 -55 l-23 -27 -15 23 c-46 64 -157 79
-285 36z"/>
<path d="M1020 1004 c0 -184 3 -235 13 -232 9 4 13 56 15 204 3 202 -1 264
-18 264 -6 0 -10 -93 -10 -236z"/>
<path d="M735 715 c-44 -14 -99 -30 -122 -36 -24 -6 -43 -15 -43 -20 0 -17 53
-9 147 21 121 39 195 40 247 5 20 -14 50 -25 67 -25 17 0 47 11 67 25 52 36
130 34 250 -5 95 -31 142 -37 142 -20 0 5 -12 12 -27 16 -16 3 -70 19 -121 35
-117 37 -182 38 -246 4 -58 -31 -69 -31 -130 0 -63 32 -125 32 -231 0z"/>
<path d="M255 876 c-19 -8 -105 -136 -105 -156 0 -11 15 -12 48 -4 12 4 22 11
22 16 0 6 16 37 36 69 37 62 37 93 -1 75z"/>
<path d="M1804 869 c-11 -4 -27 -16 -38 -27 -18 -21 -18 -21 17 -15 46 7 102
-12 127 -44 l20 -26 0 26 c0 55 -74 106 -126 86z"/>
<path d="M110 830 c0 -5 7 -7 15 -4 8 4 15 8 15 10 0 2 -7 4 -15 4 -8 0 -15
-4 -15 -10z"/>
<path d="M1740 772 c0 -29 45 -79 76 -85 36 -6 82 10 95 34 9 18 7 19 -16 13
-38 -10 -91 4 -125 32 -28 24 -30 25 -30 6z"/>
<path d="M305 761 c-3 -5 -1 -12 5 -16 5 -3 10 1 10 9 0 18 -6 21 -15 7z"/>
<path d="M276 670 c-74 -48 -81 -60 -61 -102 8 -18 13 -26 11 -17 -2 9 -1 20
2 25 10 14 115 77 129 77 8 0 8 8 -3 29 -8 15 -16 28 -17 27 -1 0 -29 -18 -61
-39z"/>
<path d="M1690 663 c-15 -26 -15 -26 50 -60 36 -19 70 -40 76 -48 9 -12 13
-10 22 11 7 14 12 27 12 29 0 2 -30 20 -67 41 -38 20 -70 41 -73 45 -3 4 -12
-4 -20 -18z"/>
<path d="M383 591 c-10 -16 -9 -18 7 -14 11 3 16 11 13 19 -7 18 -6 18 -20 -5z"/>
<path d="M394 509 c-21 -23 -51 -49 -66 -59 l-28 -17 23 -21 22 -20 63 62 c61
60 63 62 44 79 -17 16 -20 15 -58 -24z"/>
<path d="M1596 528 c-14 -19 -11 -23 47 -72 34 -28 64 -54 67 -57 3 -4 12 3
21 15 16 21 14 23 -52 78 -67 56 -69 57 -83 36z"/>
<path d="M1760 506 c5 -15 7 -33 3 -39 -3 -7 3 -3 15 7 12 11 21 20 20 20 -2
1 -13 10 -26 21 l-23 19 11 -28z"/>
<path d="M485 466 c0 -32 1 -34 18 -19 16 15 16 17 1 35 -10 10 -18 18 -18 18
-1 0 -1 -15 -1 -34z"/>
<path d="M1545 471 c-3 -5 -2 -12 3 -15 5 -3 9 1 9 9 0 17 -3 19 -12 6z"/>
<path d="M415 423 l0 -22 23 21 c12 12 22 22 22 22 0 1 -10 1 -22 1 -17 0 -23
-6 -23 -22z"/>
<path d="M537 427 c-11 -28 -29 -168 -23 -174 10 -10 55 18 50 32 -6 16 15
108 26 115 5 3 -3 14 -19 23 -23 13 -30 14 -34 4z"/>
<path d="M1460 407 l-25 -21 25 -26 c14 -14 37 -40 53 -58 32 -38 57 -40 89
-9 13 12 19 19 14 15 -23 -18 -46 -5 -84 45 -21 28 -41 57 -43 64 -3 7 -13 4
-29 -10z"/>
<path d="M377 357 c15 -16 17 -16 35 -1 10 10 18 18 18 18 0 1 -15 1 -34 1
-32 0 -34 -1 -19 -18z"/>
<path d="M644 345 c-11 -22 -10 -23 7 -12 20 13 24 23 11 31 -4 2 -12 -6 -18
-19z"/>
<path d="M1372 357 c-12 -6 -21 -13 -20 -16 2 -3 22 -43 46 -88 23 -46 42 -90
42 -99 0 -13 3 -14 14 -5 28 23 24 51 -17 135 -40 79 -43 83 -65 73z"/>
<path d="M703 334 c6 -6 -20 -81 -48 -136 -12 -25 -11 -27 12 -33 14 -3 27 -5
29 -3 1 2 16 38 33 81 l30 78 -25 10 c-29 10 -40 12 -31 3z"/>
<path d="M798 278 c3 -21 7 -26 13 -17 13 20 11 36 -4 42 -10 4 -12 -3 -9 -25z"/>
<path d="M1221 297 c2 -1 12 -9 22 -16 14 -12 17 -11 17 3 0 10 -8 16 -22 16
-12 0 -19 -1 -17 -3z"/>
<path d="M1153 283 c-18 -3 -21 -8 -14 -21 5 -9 14 -49 21 -88 12 -67 14 -70
37 -66 23 4 24 7 18 50 -6 42 -5 44 14 39 23 -6 27 8 11 33 -8 13 -10 12 -10
-2 0 -36 -28 -18 -35 22 -4 22 -10 39 -13 39 -4 -1 -17 -4 -29 -6z"/>
<path d="M930 238 c0 -18 -3 -57 -6 -85 -7 -52 -6 -53 20 -53 23 0 26 4 26 33
0 17 3 56 6 85 7 51 6 52 -20 52 -23 0 -26 -4 -26 -32z"/>
<path d="M1028 258 c15 -15 16 -112 2 -139 -15 -28 5 -25 35 6 36 35 35 96 -1
124 -29 23 -56 29 -36 9z"/>
<path d="M754 242 c-7 -4 -8 -16 -4 -27 7 -19 7 -19 14 3 9 27 5 34 -10 24z"/>
<path d="M1281 173 c-1 -6 -4 -18 -7 -27 -4 -11 -1 -16 10 -16 18 0 19 6 6 35
-5 11 -9 15 -9 8z"/>
<path d="M751 156 c-21 -12 -22 -14 -5 -20 16 -6 33 7 34 27 0 9 0 9 -29 -7z"/>
<path d="M1397 159 c-10 -6 -15 -14 -12 -20 10 -14 45 -11 45 5 0 21 -12 26
-33 15z"/>
</g>
</svg>
