<?xml version="1.0" encoding="utf-8"?>
<!-- Generator: Adobe Illustrator 19.2.0, SVG Export Plug-In . SVG Version: 6.00 Build 0)  -->
<svg version="1.1" id="Capa_1" xmlns="http://www.w3.org/2000/svg" xmlns:xlink="http://www.w3.org/1999/xlink" x="0px" y="0px"
	 viewBox="0 0 512 512" style="enable-background:new 0 0 512 512;" xml:space="preserve">
<style type="text/css">
	.st0{fill:#5011CC;}
</style>
<g>
	<g>
		<path class="st0" d="M330,165C330,74,256,0,165,0S0,74,0,165c0,41.7,7.8,83.2,15.3,123.3C22.5,327,30,367.1,30,406
			c0,58.4,47.1,106,105,106s105-47.6,105-106c0-7.4-0.8-15.5-2.1-22.1c-7.3-35.8,19-77.4,43.8-102.2C312.8,250.5,330,209.1,330,165z
			 M208.5,389.9c1,4.7,1.5,10.7,1.5,16.1c0,41.9-33.6,76-75,76s-75-34.1-75-76c0-41.7-7.8-83.2-15.3-123.3C37.5,244,30,203.9,30,165
			C30,90.6,90.6,30,165,30s135,60.6,135,135c0,36.1-14,70-39.5,95.5C229,291.9,198.8,342.5,208.5,389.9z"/>
	</g>
</g>
<g>
	<g>
		<path class="st0" d="M184.6,61.8C118.7,49.7,60,100.2,60,165c0,36.1,6.9,72.8,14.2,111.7c2.4,12.5,4.8,25.4,7,38.3
			c4.4,26.1,26.5,45,52.5,45c25.3,0,47.2-18,52.2-42.8c0-4.6,18.1-53-19.4-98.8c-18.9-23.1-46.4-36.9-76-38.3
			C90.1,175,90,170,90,165c0-45.2,40.8-82.6,89.2-73.7c58.9,10.8,81.3,84.2,38.8,126.7l21.2,21.2C298.3,180.2,268,77.1,184.6,61.8z
			 M143.2,237.5c27.5,33.6,13.3,68.8,13.2,73.9c-2.2,10.8-11.7,18.6-22.7,18.6c-11.3,0-20.9-8.4-22.9-20
			c-2.2-13.1-4.7-26.2-7.1-38.9c-3.9-20.9-7.7-41.1-10.3-60.7C112.8,212.5,130.7,222.1,143.2,237.5z"/>
	</g>
</g>
<g>
	<g>
		<rect x="361" y="240" class="st0" width="151" height="30"/>
	</g>
</g>
<g>
	<g>
		
			<rect x="421" y="337.9" transform="matrix(0.4472 -0.8944 0.8944 0.4472 -121.2304 613.8197)" class="st0" width="30" height="134.2"/>
	</g>
</g>
<g>
	<g>
		
			<rect x="368.9" y="90" transform="matrix(0.8944 -0.4472 0.4472 0.8944 -0.9276 206.0716)" class="st0" width="134.2" height="30"/>
	</g>
</g>
</svg>
