<?xml version="1.0" encoding="utf-8"?>
<!-- Generator: Adobe Illustrator 19.2.0, SVG Export Plug-In . SVG Version: 6.00 Build 0)  -->
<svg version="1.1" id="Capa_1" xmlns="http://www.w3.org/2000/svg" xmlns:xlink="http://www.w3.org/1999/xlink" x="0px" y="0px"
	 viewBox="0 0 491.7 491.7" style="enable-background:new 0 0 491.7 491.7;" xml:space="preserve">
<style type="text/css">
	.st0{fill:#5011CC;}
</style>
<g>
	<g>
		<path class="st0" d="M176.1,256.6c-18.4-14.1-41.4-22.6-66.5-22.6C49.1,234.1,0,283.1,0,343.7v67.6c0,7.9,6.4,14.3,14.3,14.3H130
			v-69.1C130,316.6,147.9,280.8,176.1,256.6z"/>
	</g>
	<g>
		<path class="st0" d="M109.6,215.6c41.3,0,74.8-33.5,74.8-74.8c0-41.3-33.5-74.8-74.8-74.8s-74.8,33.5-74.8,74.8
			C34.8,182.1,68.3,215.6,109.6,215.6z"/>
	</g>
	<g>
		<path class="st0" d="M261.7,257.6c-54.6,0-98.9,44.3-98.9,98.9v54.8c0,7.9,6.4,14.3,14.3,14.3h42.1h71.5v-58.8
			c0-33.2,14-63.1,36.3-84.4C309.6,267,286.7,257.6,261.7,257.6z"/>
	</g>
	<g>
		<path class="st0" d="M225.1,230.1c10.5,6.8,23,10.9,36.5,10.9c13.5,0,26-4.1,36.5-10.9c18.6-12,30.9-32.8,30.9-56.6
			c0-37.3-30.2-67.5-67.5-67.5c-37.3,0-67.5,30.2-67.5,67.5C194.2,197.3,206.6,218.1,225.1,230.1z"/>
	</g>
	<g>
		<path class="st0" d="M407.6,282.7c-46.4,0-84.1,37.7-84.1,84.1v44.4c0,7.9,6.4,14.3,14.3,14.3h22.7h116.8
			c7.9,0,14.3-6.4,14.3-14.3v-44.4C491.7,320.4,454,282.7,407.6,282.7z"/>
	</g>
	<g>
		<path class="st0" d="M371.7,255.6c9.9,8,22.2,12.9,35.9,12.9c13.7,0,26-5,35.9-12.9c13-10.5,21.5-26.4,21.5-44.4
			c0-31.7-25.7-57.4-57.4-57.4c-31.7,0-57.4,25.7-57.4,57.4C350.2,229.2,358.7,245.1,371.7,255.6z"/>
	</g>
</g>
</svg>
